<svg xmlns="http://www.w3.org/2000/svg" xml:space="preserve" viewBox="0 0 367.1 373.3"><path fill="#010101" d="M183.3 365.5c99.3 0 179.8-80.5 179.8-179.8S282.6 5.9 183.3 5.9 3.5 86.4 3.5 185.7 84 365.5 183.3 365.5zm0-36c-79.4 0-143.9-64.4-143.9-143.9S103.8 41.8 183.3 41.8s143.9 64.4 143.9 143.9-64.5 143.8-143.9 143.8z"/><path d="M151.1 226.7v-12.5c0-10.8 2.3-20.2 6.9-28.2 4.6-8 13-16.5 25.3-25.5 11.8-8.4 19.6-15.3 23.4-20.6 3.8-5.3 5.6-11.2 5.6-17.7 0-7.3-2.7-12.9-8.1-16.7-5.4-3.8-12.9-5.7-22.6-5.7-16.9 0-36.1 5.5-57.7 16.5l-18.4-36.9c25.1-14.1 51.7-21.1 79.8-21.1 23.2 0 41.6 5.6 55.2 16.7 13.7 11.1 20.5 26 20.5 44.5 0 12.4-2.8 23-8.4 32-5.6 9-16.3 19.1-32 30.4-10.8 8-17.6 14.1-20.5 18.2-2.9 4.2-4.3 9.6-4.3 16.4v10.1h-44.7zm-5.4 57.6c0-9.4 2.5-16.6 7.6-21.4 5.1-4.8 12.4-7.3 22.1-7.3 9.3 0 16.6 2.5 21.7 7.4 5.1 4.9 7.7 12 7.7 21.2 0 8.9-2.6 15.9-7.8 21-5.2 5.1-12.4 7.7-21.6 7.7-9.4 0-16.8-2.5-21.9-7.5-5.2-4.9-7.8-12-7.8-21.1z"/></svg>