<svg xmlns="http://www.w3.org/2000/svg" width="160" height="160" data-name="YAML Logo" viewBox="0 0 512 470.647"><path d="M512 422.735H395.638v-172.61h-48.196v219.522H512v-46.912zM87.701 250.177v220.47h47.303V318.569l49.505 102.22h37.234l51.196-105.813v155.626h45.379V250.177h-61.96l-54.977 99.706-52.36-99.706h-61.32z"/><path d="M330.294 195.39H228.433l-20.717 50.024H162.61l95.38-224.949h46.137l91.51 224.949h-48.2l-17.144-50.024Zm-16.92-44.911-31.226-82.55-34.837 82.55h66.063Z" style="fill:#cb171e" transform="translate(0 -19.939)"/><path d="m235.793 0-91.815 137.674v87.275H87.702v-87.275L0 0h63.25l55.768 88.646L175.243 0h60.55z"/></svg>